<svg xmlns="http://www.w3.org/2000/svg" enable-background="new 0 0 2000 2000" viewBox="0 0 2000 2000" id="notification">
  <path fill="#150E00" d="M471.05,1234.14c-8.13-26.73-8.61-51.19-1.57-68.88c2.04-5.13,0.22-10.98-4.45-13.92l-0.39-0.25
		c-6-3.77-13.97-1.19-16.58,5.39c-9.02,22.72-8.85,52.64,0.81,84.4c9.86,32.44,28.46,63.15,51.82,85.98
		c4.81,4.71,12.61,4.33,16.96-0.81c3.92-4.64,3.59-11.52-0.75-15.77C496.26,1290.16,479.81,1262.96,471.05,1234.14z"></path>
  <path fill="#150E00" d="M418.65 1236.95c-8.66-36.49-7.7-70.46 2.45-95.11 2.18-5.29.06-11.37-4.93-14.18l-.43-.24c-5.93-3.34-13.46-.75-16.05 5.55-25.07 60.96-1.84 158.55 53.39 222.22 4.37 5.04 12.06 5.4 16.84.76l.01-.01c4.42-4.27 4.73-11.25.71-15.89C446.44 1312.11 427.71 1275.14 418.65 1236.95zM1505.55 723.72c-4.6-4.93-12.4-4.91-16.98.02-4.13 4.45-4.12 11.34.03 15.78 19.68 21.06 34.87 48.99 42.3 78.18 6.9 27.08 6.24 51.53-1.6 68.88-2.28 5.03-.73 10.96 3.8 14.11l.38.27c5.81 4.04 13.89 1.84 16.8-4.62 10.05-22.27 11.26-52.18 3.07-84.35C1545 779.13 1527.83 747.6 1505.55 723.72z"></path>
  <path fill="#150E00" d="M1554.4 697.62c-4.13-5.23-11.8-5.95-16.79-1.54l-.01.01c-4.61 4.06-5.24 11.02-1.44 15.84 22.89 29.03 39.89 66.82 47.19 105.38 6.98 36.86 4.46 70.74-6.81 94.9-2.42 5.19-.58 11.36 4.27 14.39l.42.26c5.78 3.61 13.42 1.37 16.29-4.81C1625.36 862.32 1606.64 763.77 1554.4 697.62zM1165.56 569.58c1.14.21 2.27.43 3.41.66.14.03.27.05.41.08 6.11 1.21 12.19 2.58 18.25 4.09.06.01.12.03.18.04 5.99 1.5 11.95 3.15 17.87 4.94.24.07.47.14.71.21 1.02.31 2.04.63 3.06.95.28.09.55.17.83.26 1.03.32 2.05.65 3.07.98.02 0 .03.01.05.02 1.2.39 2.39.78 3.59 1.18.88.3 1.75.6 2.63.9.38.13.75.26 1.13.39.77.27 1.54.54 2.31.82.59.21 1.18.42 1.77.63.71.26 1.42.52 2.13.78.66.24 1.32.49 1.98.73.66.25 1.32.5 1.99.75.76.29 1.53.59 2.29.88.59.23 1.18.45 1.77.68 1.21.48 2.42.96 3.63 1.45.6.24 1.19.49 1.79.73.72.3 1.44.59 2.15.89.65.27 1.29.54 1.94.82.66.28 1.32.56 1.98.85.67.29 1.33.58 2 .87.62.27 1.25.55 1.87.83.69.31 1.38.61 2.06.92.4.18.79.36 1.19.54 1.57.72 3.14 1.44 4.7 2.18.44.21.88.41 1.31.62.82.39 1.64.79 2.46 1.18.41.2.83.4 1.24.6.85.42 1.7.84 2.55 1.26.32.16.64.32.96.48 2.05 1.03 4.09 2.07 6.12 3.14l7.95-23.62c5.17-15.36 4.05-31.81-3.15-46.32-7.21-14.52-19.63-25.36-34.98-30.53-15.36-5.17-31.81-4.05-46.32 3.15-14.52 7.2-25.36 19.63-30.53 34.98l-7.95 23.62c2.39.4 4.78.83 7.17 1.28C1165.27 569.53 1165.41 569.55 1165.56 569.58zM850.09 1383.45c-15.15 44.8 8.98 93.57 53.78 108.71 21.7 7.34 44.96 5.78 65.49-4.37 20.53-10.16 35.88-27.71 43.22-49.41l9.56-28.28-162.56-54.74L850.09 1383.45zM1352.96 1331.95l-413.52-139.24-182.95-61.46c-.1-.03-.19-.05-.29-.08l-90.07-30.32 0 0-10.88-3.83c-.13-.04-10.2-3.61-23.75-3.61-8.61 0-18.62 1.44-28.37 6.14-17.2 8.29-30.12 24.95-38.4 49.55-6.67 19.81-5.23 41.02 4.06 59.74 9.29 18.72 25.31 32.7 45.11 39.36l231.12 77.82.29-.85 206.4 69.79-.2.59 243.37 81.94c8.25 2.78 16.64 4.1 24.9 4.1 32.67 0 63.22-20.64 74.2-53.27 10.25-30.42 6.71-55.68-10.5-75.08C1370.39 1338.46 1353.77 1332.25 1352.96 1331.95zM1332.1 675.77c-17.95-15.9-37.6-30.02-58.39-41.95-13.91-7.99-28.46-15.08-43.44-21.17-6.81-2.77-13.71-5.33-20.69-7.68-22.32-7.52-45.38-12.84-68.52-15.83l-.84-.11c-40.39-5.11-81.06-3.25-120.9 5.56-39.32 8.69-76.66 23.84-110.99 45.05-34.59 21.38-64.99 48.21-90.35 79.75-26.24 32.65-46.39 69.51-59.88 109.59l-84.18 250.02 79.64 26.81 158.07 53.14c.42.09.83.2 1.25.34l152.72 51.42h0l283.86 95.58 84.13-249.88c22.79-67.68 24.83-139.69 5.9-208.25C1421.03 781.27 1383.89 721.64 1332.1 675.77z"></path>
</svg>
